<svg width="410" height="262" viewBox="0 0 410 262" fill="none" xmlns="http://www.w3.org/2000/svg">
<g clip-path="url(#clip0)">
<path d="M62.4061 233.336C69.8807 235.673 76.3093 232.392 79.2025 223.251C82.0957 214.11 70.0595 204.461 60.8171 205.385C51.5748 206.309 52.164 200.699 42.4317 193.875C32.6995 187.05 28.8198 193.677 22.4508 183.486C16.0818 173.296 -4.47514 181.988 0.880921 190.746C6.23698 199.505 16.2341 184.866 21.6365 199.689C27.0389 214.513 41.6108 201.531 42.584 211.193C43.0112 214.334 44.1748 217.33 45.9804 219.938C48.1279 223.162 50.7684 226.03 53.8059 228.439C56.3575 230.568 59.2699 232.227 62.4061 233.336Z" fill="#40A78B"/>
<path d="M60.5974 221.37C68.7209 228.241 78.5392 227.535 86.9805 217.595C95.4217 207.656 85.5041 189.215 73.4414 185.532C61.3786 181.85 65.0994 175.104 56.5324 161.429C47.9653 147.754 39.5969 154.004 37.0347 137.887C34.4726 121.77 4.11715 121.809 6.18277 135.57C8.2484 149.331 28.5273 136.31 27.415 157.713C26.3028 179.117 51.4544 170.564 47.5482 183.17C46.3499 187.017 46.3499 191.439 47.1444 195.914C48.1314 201.077 49.9183 206.056 52.4408 210.672C54.8905 215.166 57.8035 218.981 60.5974 221.37Z" fill="#73BEA9"/>
<path d="M40.5903 165.406C41.9512 164.77 42.129 162.286 40.9874 159.856C39.8458 157.427 37.8172 155.972 36.4563 156.608C35.0954 157.243 34.9176 159.728 36.0592 162.157C37.2008 164.587 39.2294 166.041 40.5903 165.406Z" fill="#40A78B"/>
<path d="M77.4302 202.905C78.7911 202.27 78.9689 199.785 77.8273 197.356C76.6857 194.926 74.657 193.472 73.2962 194.108C71.9353 194.743 71.7575 197.228 72.899 199.657C74.0406 202.087 76.0693 203.541 77.4302 202.905Z" fill="#50B586"/>
<path d="M59.981 197.853C61.3419 197.218 61.5197 194.733 60.3781 192.304C59.2365 189.874 57.2078 188.42 55.8469 189.055C54.486 189.691 54.3083 192.176 55.4499 194.605C56.5914 197.034 58.6201 198.489 59.981 197.853Z" fill="#40A78B"/>
<path d="M53.4375 170.462C54.2454 170.084 54.3534 168.615 53.6787 167.179C53.004 165.743 51.8021 164.885 50.9941 165.262C50.1862 165.639 50.0782 167.109 50.7529 168.545C51.4276 169.981 52.6295 170.839 53.4375 170.462Z" fill="#40A78B"/>
<path d="M69.7734 212.296C70.5813 211.919 70.6893 210.449 70.0146 209.013C69.3399 207.577 68.138 206.719 67.3301 207.097C66.5221 207.474 66.4141 208.944 67.0889 210.38C67.7636 211.815 68.9655 212.674 69.7734 212.296Z" fill="#50B586"/>
<path d="M26.1133 138.394C26.9212 138.016 27.0292 136.546 26.3545 135.111C25.6798 133.675 24.4778 132.816 23.6699 133.194C22.862 133.571 22.754 135.041 23.4287 136.477C24.1034 137.913 25.3054 138.771 26.1133 138.394Z" fill="#40A78B"/>
<path d="M360.305 206.217L372.116 216.011C376.636 214.943 381.073 213.549 385.39 211.84L380.802 203.92L388.125 210.738C395.729 207.551 403.039 203.709 409.973 199.254C405.767 197.515 401.45 196.057 397.049 194.891L391.475 198.099L394.977 194.357C368.495 187.842 341.555 191.717 345.044 207.557C346.872 215.859 354.81 218.361 365.244 217.199L360.305 206.217Z" fill="#40A78B"/>
<path d="M352.39 180.688L367.439 189.136C371.503 185.776 375.295 182.102 378.78 178.147L366.863 169.415L381.375 175.157C384.222 171.758 387.022 168.056 389.717 164.116L379.786 157.218L391.491 161.502C394.02 157.621 396.443 153.523 398.708 149.259L391.134 145.055L399.74 147.266C402.366 142.147 404.7 136.885 406.732 131.505C396.35 133.699 386.239 137.019 376.582 141.405L377.356 148.401L375.013 142.144C370.99 144.048 367.08 146.179 363.301 148.526L364.625 157.199L361.586 149.602C357.074 152.497 352.833 155.79 348.914 159.443L352.039 167.363L347.53 160.822C336.004 172.306 331.833 184.582 337.566 193.617C342.644 201.63 352.86 199.874 364.247 191.637L352.39 180.688Z" fill="#40A78B"/>
<path d="M337.543 193.604C342.621 201.617 352.837 199.861 364.224 191.624L352.386 180.701L367.435 189.149C371.5 185.79 375.292 182.115 378.776 178.16L366.859 169.428L381.371 175.17C384.218 171.771 387.019 168.069 389.713 164.129L379.782 157.232L391.488 161.515C394.017 157.634 396.44 153.536 398.704 149.272L391.13 145.068L399.737 147.279C402.362 142.16 404.696 136.898 406.728 131.518L337.543 193.604Z" fill="#73BEA9"/>
<path d="M172.838 119.539L169.527 34.3991C169.5 33.6964 169.614 32.9954 169.862 32.337C170.11 31.6787 170.487 31.0764 170.972 30.5656C171.457 30.0547 172.039 29.6455 172.685 29.362C173.33 29.0784 174.026 28.9263 174.731 28.9145L315.809 26.4791C317.193 26.4556 318.531 26.9729 319.537 27.9202C320.543 28.8674 321.137 30.1696 321.192 31.548L324.76 119.117C324.789 119.828 324.673 120.537 324.42 121.202C324.166 121.867 323.781 122.475 323.286 122.987C322.791 123.5 322.198 123.908 321.541 124.187C320.884 124.465 320.178 124.608 319.464 124.608H178.128C176.76 124.607 175.446 124.079 174.46 123.134C173.474 122.19 172.892 120.901 172.838 119.539Z" fill="#D7E9FF"/>
<path d="M169.904 44.6027L169.5 34.4256C169.473 33.7229 169.586 33.0218 169.834 32.3635C170.082 31.7052 170.46 31.1029 170.945 30.592C171.429 30.0811 172.012 29.6718 172.657 29.3883C173.303 29.1048 173.999 28.9527 174.704 28.9409L315.809 26.4791C317.192 26.4556 318.53 26.9729 319.536 27.9202C320.542 28.8674 321.136 30.1696 321.191 31.548L321.502 39.3359L169.904 44.6027Z" fill="#78B6FF"/>
<path d="M178.205 34.8743C176.782 36.7025 177.325 39.1181 179.86 39.6659C182.396 40.2137 184.15 37.4681 182.939 35.2769C181.727 33.0857 179.49 33.2243 178.205 34.8743Z" fill="white"/>
<path d="M190.304 34.584C189.046 36.201 189.523 38.3327 191.761 38.8211C192.254 38.9138 192.763 38.8629 193.228 38.6743C193.692 38.4858 194.092 38.1676 194.38 37.758C194.668 37.3485 194.831 36.8648 194.851 36.365C194.87 35.8653 194.744 35.3706 194.488 34.9403C193.416 32.9999 191.436 33.132 190.304 34.584Z" fill="white"/>
<path d="M228.143 45.1769L236.465 41.613C236.791 41.4733 237.141 41.4002 237.495 41.3979C237.849 41.3956 238.2 41.4641 238.528 41.5995C238.855 41.7349 239.151 41.9344 239.4 42.1861C239.648 42.4378 239.844 42.7366 239.974 43.0649L248.389 64.1849C248.639 64.8142 248.636 65.515 248.382 66.1426C248.129 66.7702 247.643 67.2767 247.025 67.5575L239.888 70.8047C239.571 70.9482 239.228 71.028 238.88 71.0393C238.532 71.0506 238.185 70.9933 237.859 70.8706C237.533 70.748 237.234 70.5625 236.981 70.3246C236.727 70.0868 236.522 69.8014 236.379 69.4847L226.773 48.708C226.625 48.3872 226.543 48.0401 226.532 47.6873C226.522 47.3344 226.582 46.983 226.71 46.6538C226.837 46.3246 227.03 46.0243 227.276 45.7706C227.523 45.5169 227.817 45.315 228.143 45.1769Z" fill="#2D60AA"/>
<path d="M260.168 89.4827C260.168 89.4827 256.586 101.416 248.549 97.9175C240.511 94.4195 238.346 71.1611 240.313 65.5775C242.279 59.9939 239.651 59.8157 238.644 60.8585C237.638 61.9013 236.552 65.4785 236.552 65.4785C237.598 60.8585 240.253 58.6673 238.75 57.1691C237.247 55.6709 234.897 59.004 234.017 63.063C235.01 57.9084 237.433 55.4928 236.003 54.0672C234.573 52.6416 229.184 57.5783 229.184 70.7453C229.184 83.9123 232.375 105.316 249.323 110.471C266.272 115.625 273.82 90.7961 273.82 90.7961L260.168 89.4827Z" fill="#FFBE3D"/>
<path d="M291.042 57.2219C291.042 57.2219 312.95 53.922 322.821 89.9249C332.692 125.928 327.773 129.432 326.793 130.416C325.813 131.399 272.703 133.822 272.703 133.822L273.034 94.2215C273.034 94.2215 261.58 92.7893 257.145 89.6015C259.753 75.0816 267.314 61.9475 275.477 61.9475C283.64 61.9475 291.042 57.2219 291.042 57.2219Z" fill="white"/>
<path d="M201.829 34.0956C200.551 35.7324 201.041 37.8972 203.312 38.3922C203.815 38.4875 204.334 38.4356 204.808 38.2427C205.282 38.0499 205.689 37.7243 205.981 37.3053C206.273 36.8864 206.437 36.3921 206.454 35.8822C206.47 35.3723 206.337 34.8687 206.073 34.4322C204.987 32.4852 202.981 32.6172 201.829 34.0956Z" fill="white"/>
<path d="M286.361 42.5172C286.361 42.5172 286.851 53.0771 291.035 57.2219C282.667 67.3199 278.714 65.0033 275.497 61.9409C275.954 57.5519 272.723 53.5391 272.723 53.5391L286.361 42.5172Z" fill="#F6A502"/>
<path d="M289.718 31.3235C289.718 31.3235 292.69 22.0836 286.527 15.9588C280.363 9.834 275.729 9.35877 270.889 8.50077C266.049 7.64277 263.414 -0.739261 257.906 0.0461388C252.398 0.831538 255.92 6.64613 255.92 6.64613C255.92 6.64613 250.689 2.09217 248.326 4.44837C245.962 6.80456 249.094 11.4708 249.094 11.4708C242.473 8.61957 237.428 13.233 242.162 20.1432C246.896 27.0534 255.476 27.0599 264.725 26.2877C271.035 25.7663 277.966 35.046 283.263 36.7158C285.732 37.4748 289.718 31.3235 289.718 31.3235Z" fill="#327ACF"/>
<path d="M264.785 17.3843C271.446 16.0643 281.688 19.0344 283.886 30.1158C286.084 41.1971 283.389 56.4564 274.332 56.4564C265.275 56.4564 260.548 47.8764 257.688 35.1648C254.828 22.4532 264.785 17.3843 264.785 17.3843Z" fill="#FFBE3D"/>
<path d="M285.134 32.3004C285.134 32.3004 288.616 25.839 291.589 31.1058C294.562 36.3726 288.696 47.784 285.134 42.6294C281.572 37.4748 285.134 32.3004 285.134 32.3004Z" fill="#FFBE3D"/>
<path d="M273.204 18.81C273.204 18.81 273.648 21.6678 276.839 24.849C280.03 28.0302 282.565 33.6269 278.269 40.9793C273.316 38.5637 265.279 40.1015 264.511 47.3483L260.982 45.7181C260.982 45.7181 265.617 61.4987 276.21 58.6475C286.803 55.7963 285.24 42.9528 285.24 34.8348C285.24 26.7168 283.148 19.2522 279.282 17.6088C275.415 15.9654 263.101 12.5597 258.804 15.4109C256.085 17.3295 253.891 19.8956 252.422 22.8756L257.228 24.5585C257.228 24.5585 264.895 27.0995 273.204 18.81Z" fill="#327ACF"/>
<path d="M267.824 45.6983C270.328 45.3759 272.731 44.5157 274.869 43.1772C276.299 48.6618 275.226 50.9652 272.737 51.4074C270.247 51.8496 267.824 45.6983 267.824 45.6983Z" fill="#FFBE3D"/>
<path d="M112.238 186.635C133.814 190.806 130.014 221.529 130.014 221.529H117.534L114.886 247.196L77.8109 248.734L80.0155 226.142C80.0155 226.142 72.4879 229.356 59.207 224.604C59.207 187.182 90.688 182.463 90.688 182.463L112.238 186.635Z" fill="white"/>
<path d="M97.7267 163.04C97.7267 163.04 95.8531 177.309 90.6758 182.463C96.29 194.535 109.829 195.743 112.252 186.635C109.604 183.097 109.723 176.867 109.723 176.867L102.017 162.162L97.7267 163.04Z" fill="#F6A502"/>
<path d="M113.184 243.012L113.634 216.572C113.64 216.219 113.717 215.87 113.861 215.546C114.004 215.223 114.212 214.932 114.47 214.69C114.729 214.448 115.034 214.26 115.367 214.138C115.7 214.016 116.054 213.962 116.408 213.978L129.649 214.599C130.004 214.615 130.351 214.703 130.671 214.856C130.991 215.009 131.277 215.225 131.512 215.49C131.746 215.755 131.925 216.065 132.037 216.401C132.15 216.736 132.193 217.091 132.165 217.443L130.179 242.88C130.129 243.528 129.84 244.135 129.369 244.585C128.897 245.034 128.275 245.294 127.623 245.315L115.878 245.691C115.523 245.698 115.171 245.633 114.841 245.5C114.512 245.368 114.213 245.171 113.962 244.921C113.71 244.671 113.512 244.373 113.378 244.045C113.245 243.717 113.179 243.366 113.184 243.012Z" fill="#2C60AA"/>
<path d="M80.0044 226.142C80.0044 226.142 76.5882 244.028 86.0557 243.038C95.5231 242.048 108.844 226.142 119.629 226.142C130.414 226.142 129.096 229.442 126.62 229.924C124.144 230.406 120.178 230.313 119.41 230.313C126.567 230.861 129.043 233.765 127.355 235.468C125.667 237.171 123.502 234.148 119.98 234.148C125.044 236.339 124.713 239.303 123.833 240.18C122.952 241.058 120.522 237.54 118.331 237.54C117.669 239.52 114.147 241.269 111.618 241.269C104.792 244.893 92.7888 267.062 74.847 260.918C56.9052 254.773 60.5995 224.71 60.5995 224.71C60.5995 224.71 63.5125 225.918 70.3384 226.215C77.1642 226.512 80.0044 226.142 80.0044 226.142Z" fill="#FFBE3D"/>
<path d="M95.6348 162.162C95.6348 162.162 87.3789 152.618 87.3789 144.276C87.3789 135.934 93.0991 135.933 93.0991 135.933C93.0991 135.933 100.037 117.935 114.563 113.989C129.089 110.042 127.804 117.612 125.686 119.698C137.133 115.196 142.303 119.368 142.303 123.314C142.303 127.261 137.669 130.574 137.669 130.574C137.669 130.574 145.263 129.037 145.263 135.854C145.263 142.672 137.007 144.52 137.007 144.52C137.007 144.52 140.092 145.728 138.549 149.8C137.007 153.872 128.42 151.886 128.42 151.886L103.546 152.546L95.6348 162.162Z" fill="#327ACF"/>
<path d="M111.154 135.933C115.881 133.221 129.069 134.726 129.95 148.335C130.83 161.944 124.58 184.437 111.869 180.82C99.1573 177.203 98.1642 155.252 101.276 147.82C104.388 140.388 106.427 138.679 111.154 135.933Z" fill="#FFBE3D"/>
<path d="M101.353 163.812C95.1894 168.531 89.5222 153.984 93.4085 150.09C97.2948 146.196 100.691 153.166 100.691 153.166L101.353 163.812Z" fill="#FFBE3D"/>
<path d="M100.691 153.199C100.691 153.199 101.353 157.588 104.664 156.71C107.974 155.832 106.094 143.867 106.094 143.867C106.094 143.867 115.892 143.979 117.872 138.27C123.268 144.745 126.571 144.21 132.404 140.468C120.408 126.859 113.688 128.284 106.094 131.472C98.5 134.66 97.2818 145.702 100.691 153.199Z" fill="#327ACF"/>
<path d="M80.0038 226.142C80.0038 226.142 72.4762 229.356 59.1953 224.604C59.1953 187.182 90.6762 182.463 90.6762 182.463L80.0038 226.142Z" fill="white"/>
<path d="M279.885 125.915C279.885 125.915 291.802 114.497 303.368 124.014C314.934 133.531 308.665 140.982 315.285 145.081C321.906 149.18 326.878 151.813 326.295 162.201C325.713 172.59 338.768 169.692 342.436 176.061C346.104 182.43 339.94 187.677 349.924 192.799C359.908 197.921 349.481 207.431 352.572 213.14C355.664 218.849 352.129 243.863 328.5 235.376C304.871 226.888 295.185 250.305 279.918 235.085C264.651 219.866 266.591 202.6 269.881 192.185C273.172 181.77 268.027 181.361 265.684 173.606C263.34 165.851 271.795 163.66 267.822 153.859C263.85 144.058 262.42 129.571 279.885 125.915Z" fill="#327ACF"/>
<path d="M286.051 216.486C286.051 216.486 291.188 228.479 289.136 241.065C297.193 245.639 301.172 242.675 301.172 242.675C301.172 242.675 302.496 219.12 295.737 214.876C288.11 214.876 286.051 216.486 286.051 216.486Z" fill="#F6A502"/>
<path d="M309.62 180.49C309.62 180.49 338.75 180.926 339.77 218.242C327.005 221.311 318.783 217.509 318.783 217.509L320.544 245.018L293.095 245.744C293.095 245.744 298.676 234.775 297.795 227.165C296.915 219.555 292.214 216.777 292.214 216.777C289.836 217.489 287.362 217.834 284.879 217.8C281.502 206.098 279.582 192.06 291.188 186.489C302.794 180.919 309.62 180.49 309.62 180.49Z" fill="white"/>
<path d="M304.694 162.492C304.694 162.492 304.031 174.893 309.619 180.49C305.13 192.489 296.616 193.947 291.188 186.489C295.961 181.731 293.247 174.491 293.247 174.491L298.086 161.027L304.694 162.492Z" fill="#F6A502"/>
<path d="M287.076 133.67C279.741 135.28 271.372 148.592 278.125 166.445C284.878 184.298 298.378 182.681 302.052 170.405C305.727 158.129 303.959 151.971 301.463 143.774C298.967 135.577 294.419 132.079 287.076 133.67Z" fill="#FFBE3D"/>
<path d="M301.46 153.714C301.46 153.714 305.572 146.837 308.505 149.754C311.438 152.671 308.359 169.217 301.46 162.34C297.647 154.737 301.46 153.714 301.46 153.714Z" fill="#FFBE3D"/>
<path d="M263.65 201.788L275.567 201.128C276.229 201.09 276.882 201.302 277.396 201.721C277.91 202.14 278.247 202.737 278.341 203.392L281.936 228.875C281.985 229.224 281.963 229.58 281.872 229.921C281.78 230.262 281.621 230.582 281.404 230.86C281.187 231.139 280.916 231.372 280.607 231.544C280.298 231.717 279.957 231.825 279.605 231.864L267.688 233.184C267.001 233.259 266.312 233.064 265.768 232.64C265.224 232.216 264.868 231.596 264.775 230.914L261.2 204.778C261.151 204.419 261.177 204.054 261.275 203.706C261.374 203.357 261.543 203.033 261.773 202.752C262.003 202.472 262.288 202.242 262.611 202.076C262.934 201.91 263.287 201.812 263.65 201.788Z" fill="#2C60AA"/>
<path d="M318.799 217.509C318.799 217.509 316.892 237.969 302.36 241.065C287.828 244.16 283.869 231.409 283.869 225.7C283.869 219.991 280.784 220.42 280.122 222.776C279.46 225.132 280.122 229.521 280.122 229.521C278.659 224.09 279.645 220.4 277.705 219.008C275.765 217.615 274.07 220.908 275.613 229.521C273.481 219.047 272.786 218.678 270.734 219.225C268.681 219.773 267.721 251.565 298.838 255.77C329.955 259.974 338.906 217.49 338.906 217.49L318.799 217.509Z" fill="#FFBE3D"/>
<path d="M277.685 137.913C277.685 137.913 285.034 156.057 302.91 151.721C309.193 145.457 301.334 127.816 286.067 129.716C270.8 131.617 277.685 137.913 277.685 137.913Z" fill="#327ACF"/>
<path d="M318.8 217.509C318.8 217.509 327.022 221.311 339.787 218.242C338.761 180.926 309.637 180.49 309.637 180.49L318.8 217.509Z" fill="white"/>
<path d="M240.97 209.022C240.97 209.022 244.347 219.041 243.135 246.147C236.237 246.332 230.146 246.292 230.146 246.292L228.199 209.24L240.97 209.022Z" fill="#78B6FF"/>
<path d="M187.802 212.091C187.802 212.091 190.45 264 171.734 256.76C153.017 249.519 161.141 209.57 161.141 209.57" stroke="#78B6FF" stroke-width="7.94471" stroke-miterlimit="10"/>
<path d="M159.621 190.364C153.564 190.034 147.512 199.254 158.516 209.134C169.519 219.014 174.405 206.606 171.095 201.009" stroke="#78B6FF" stroke-width="5.29647" stroke-miterlimit="10" stroke-linecap="round"/>
<path d="M175.027 210.995C175.027 210.995 178.444 176.761 204.092 177.857C217.194 178.187 219.061 178.074 219.061 178.074C219.061 178.074 243.067 175.553 247.357 209.57C241.088 211.873 231.945 212.091 231.945 212.091L233.52 246.807L193.452 246.662L191.652 214.322C191.652 214.322 180.754 216.374 175.027 210.995Z" fill="white"/>
<path d="M204.643 167.976C204.643 167.976 206.186 176.207 204.094 177.876C205.146 186.219 218.964 184.952 219.063 178.094C217.077 171.837 217.527 167.534 217.527 167.534L204.643 167.976Z" fill="#327ACF"/>
<path d="M181.306 145.484C176.248 145.715 173.05 147.021 173.268 153.054C173.487 159.086 175.691 160.314 181.637 159.858C187.582 159.403 185.609 155.139 185.708 152.176C185.808 149.213 186.152 145.279 181.306 145.484Z" fill="#327ACF"/>
<path d="M240.534 144.276C245.592 144.507 248.79 145.814 248.565 151.846C248.34 157.878 246.148 159.106 240.203 158.651C234.258 158.195 236.231 153.932 236.131 150.968C236.032 148.005 235.688 144.058 240.534 144.276Z" fill="#327ACF"/>
<path d="M179.875 153.496C178.518 139.062 187.82 135.498 210.039 135.28C232.257 135.062 242.4 138.131 242.4 151.516C242.4 164.901 238.428 168.854 211.581 169.514C184.735 170.174 181.199 167.541 179.875 153.496Z" fill="#78B6FF"/>
<path d="M209.157 136.593C209.157 136.593 208.164 127.703 216.089 123.314" stroke="#69ADFF" stroke-width="1.98618" stroke-miterlimit="10"/>
<path d="M217.413 115.632C221.637 113.408 227.761 118.16 225.358 123.097C222.954 128.033 218.532 127.486 215.559 124.852C212.586 122.219 213.447 117.717 217.413 115.632Z" fill="#327ACF"/>
<path d="M201.01 153.714C203.433 151.298 204.644 153.272 209.822 152.948C214.999 152.625 216.641 150.638 218.846 153.272C221.05 155.905 218.733 162.274 209.822 162.38C200.91 162.485 198.593 156.129 201.01 153.714Z" fill="#327ACF"/>
<path d="M147.462 185.268L156.155 176.801C156.418 176.544 156.732 176.345 157.077 176.217C157.422 176.088 157.79 176.033 158.157 176.054C158.525 176.075 158.884 176.172 159.212 176.339C159.54 176.507 159.829 176.74 160.061 177.025L174.759 195.017C175.174 195.525 175.385 196.17 175.349 196.826C175.314 197.481 175.035 198.099 174.567 198.561L167.059 205.946C166.807 206.194 166.508 206.389 166.18 206.52C165.852 206.651 165.5 206.715 165.147 206.708C164.793 206.701 164.444 206.624 164.121 206.48C163.798 206.337 163.507 206.131 163.265 205.874L147.376 188.958C146.904 188.454 146.649 187.785 146.665 187.096C146.681 186.406 146.967 185.75 147.462 185.268Z" fill="#2D60AA"/>
<path d="M158.516 209.134C169.526 219.034 174.405 206.606 171.095 201.009" stroke="#78B6FF" stroke-width="5.29647" stroke-miterlimit="10" stroke-linecap="round"/>
</g>
<defs>
<clipPath id="clip0">
<rect width="410" height="262" fill="white"/>
</clipPath>
</defs>
</svg>
