<svg width="48" height="38" viewBox="0 0 48 38" fill="none" xmlns="http://www.w3.org/2000/svg">
<path d="M5 20C5 16.134 8.13401 13 12 13H36C39.866 13 43 16.134 43 20V30C43 33.866 39.866 37 36 37H12C8.13401 37 5 33.866 5 30V20Z" fill="#A4CDFF" stroke="#002755" stroke-width="2"/>
<path fill-rule="evenodd" clip-rule="evenodd" d="M34 36H36C39.3137 36 42 33.3137 42 30V20C42 16.6863 39.3137 14 36 14H34C37.3137 14 40 16.6863 40 20V30C40 33.3137 37.3137 36 34 36Z" fill="#80B9FF"/>
<path d="M4.30247 20C4.30247 15.7488 7.74877 12.3025 12 12.3025H36C40.2512 12.3025 43.6975 15.7488 43.6975 20V30C43.6975 34.2512 40.2512 37.6975 36 37.6975H12C7.74877 37.6975 4.30247 34.2512 4.30247 30V20Z" stroke="#002755" stroke-width="0.604938"/>
<rect width="14" height="14" rx="7" transform="matrix(1 0 0 -1 10 31)" fill="#80B9FF"/>
<rect x="1" y="-1" width="12" height="12" rx="6" transform="matrix(1 0 0 -1 9 28)" fill="white" stroke="#002755" stroke-width="2"/>
<rect width="14" height="14" rx="7" transform="matrix(1 0 0 -1 26 31)" fill="#80B9FF"/>
<rect x="1" y="-1" width="12" height="12" rx="6" transform="matrix(1 0 0 -1 25 28)" fill="white" stroke="#002755" stroke-width="2"/>
<path d="M47.6975 28C47.6975 28.9375 46.9375 29.6975 46 29.6975L44.3025 29.6975L44.3025 20.3025L46 20.3025C46.9375 20.3025 47.6975 21.0625 47.6975 22L47.6975 28Z" fill="#002755" stroke="#002755" stroke-width="0.604938"/>
<path d="M3.69753 29.6975L2 29.6975C1.06248 29.6975 0.302469 28.9375 0.302469 28L0.30247 22C0.30247 21.0625 1.06248 20.3025 2 20.3025L3.69753 20.3025L3.69753 29.6975Z" fill="#002755" stroke="#002755" stroke-width="0.604938"/>
<path d="M21 32C21.4561 33.1685 22.6273 34 24 34C25.3727 34 26.5439 33.1685 27 32" stroke="#002755" stroke-width="2" stroke-linecap="round" stroke-linejoin="round"/>
<path d="M33 19C33 18.4477 33.4477 18 34 18C34.5523 18 35 18.4477 35 19V23C35 23.5523 34.5523 24 34 24C33.4477 24 33 23.5523 33 23V19Z" fill="#002755"/>
<path d="M23 6C23 5.44772 23.4477 5 24 5C24.5523 5 25 5.44772 25 6V12C25 12.5523 24.5523 13 24 13C23.4477 13 23 12.5523 23 12V6Z" fill="#002755"/>
<path d="M17 19C17 18.4477 17.4477 18 18 18C18.5523 18 19 18.4477 19 19V23C19 23.5523 18.5523 24 18 24C17.4477 24 17 23.5523 17 23V19Z" fill="#002755"/>
<circle cx="24" cy="4" r="3.69753" fill="#002755" stroke="#002755" stroke-width="0.604938"/>
</svg>
